{"title":"Jamie McDell - Crash [Music Video] 720p [Sbyky]","uid":11746243,"size":67074476,"categoryP":"video","categoryS":"music_videos","magnet":"?xt=urn:btih:eb91fbbe8dce3ca057a452d100217fdbc5dbd2f0&amp;dn=Jamie+McDell+-+Crash+%5BMusic+Video%5D+720p+%5BSbyky%5D&amp;tr=udp%3A%2F%2Ftracker.openbittorrent.com%3A80&amp;tr=udp%3A%2F%2Fopen.demonii.com%3A1337&amp;tr=udp%3A%2F%2Ftracker.coppersurfer.tk%3A6969&amp;tr=udp%3A%2F%2Fexodus.desync.com%3A6969","seeders":1,"leechers":1,"uploader":"Sbyky","files":1,"time":1426027322,"description":"General\nComplete name                            : Jamie McDell - Crash [Music Video] 720p [Sbyky].mp4\nFormat                                   : MPEG-4\nFormat profile                           : Base Media / Version 2\nCodec ID                                 : mp42\nFile size                                : 64.0 MiB\nDuration                                 : 3mn 15s\nOverall bit rate mode                    : Variable\nOverall bit rate                         : 2 750 Kbps\nEncoded date                             : UTC 2014-11-03 11:58:09\nTagged date                              : UTC 2014-11-03 11:58:09\ngsst                                     : 0\ngstd                                     : 195186\ngssd                                     : B0AFCF389HH1425798985625081\ngshh                                     : r1---sn-25ge7n7s.googlevideo.com\n\nVideo\nID                                       : 1\nFormat                                   : AVC\nFormat/Info                              : Advanced Video Codec\nFormat profile                           : &lt;a class=&quot;__cf_email__&quot; href=&quot;/cdn-cgi/l/email-protection&quot; data-cfemail=&quot;4a02232d220a0679647b&quot;&gt;[email&amp;#160;protected]&lt;/a&gt;&lt;script cf-hash='f9e31' type=&quot;text/javascript&quot;&gt;\n/* &lt;![CDATA[ */!function(){try{var t=&quot;currentScript&quot;in document?document.currentScript:function(){for(var t=document.getElementsByTagName(&quot;script&quot;),e=t.length;e--;)if(t[e].getAttribute(&quot;cf-hash&quot;))return t[e]}();if(t&amp;&amp;t.previousSibling){var e,r,n,i,c=t.previousSibling,a=c.getAttribute(&quot;data-cfemail&quot;);if(a){for(e=&quot;&quot;,r=parseInt(a.substr(0,2),16),n=2;a.length-n;n+=2)i=parseInt(a.substr(n,2),16)^r,e+=String.fromCharCode(i);e=document.createTextNode(e),c.parentNode.replaceChild(e,c)}}}catch(u){}}();/* ]]&gt; */&lt;/script&gt;\nFormat settings, CABAC                   : Yes\nFormat settings, ReFrames                : 1 frame\nCodec ID                                 : avc1\nCodec ID/Info                            : Advanced Video Coding\nDuration                                 : 3mn 15s\nBit rate                                 : 2 556 Kbps\nMaximum bit rate                         : 6 591 Kbps\nWidth                                    : 1 280 pixels\nHeight                                   : 720 pixels\nDisplay aspect ratio                     : 16:9\nFrame rate mode                          : Constant\nFrame rate                               : 25.000 fps\nColor space                              : YUV\nChroma subsampling                       : 4:2:0\nBit depth                                : 8 bits\nScan type                                : Progressive\nBits/(Pixel*Frame)                       : 0.111\nStream size                              : 59.4 MiB (93%)\nTagged date                              : UTC 2014-11-03 11:58:10\n\nAudio\nID                                       : 2\nFormat                                   : AAC\nFormat/Info                              : Advanced Audio Codec\nFormat profile                           : LC\nCodec ID                                 : 40\nDuration                                 : 3mn 15s\nBit rate mode                            : Variable\nBit rate                                 : 192 Kbps\nMaximum bit rate                         : 202 Kbps\nChannel(s)                               : 2 channels\nChannel positions                        : Front: L R\nSampling rate                            : 44.1 KHz\nCompression mode                         : Lossy\nStream size                              : 4.47 MiB (7%)\nTitle                                    : IsoMedia File Produced by Google, 5-11-2011\nEncoded date                             : UTC 2014-11-03 11:58:10\nTagged date                              : UTC 2014-11-03 11:58:10\n\nShared By Sbyky","torrent":{"xt":"urn:btih:eb91fbbe8dce3ca057a452d100217fdbc5dbd2f0","amp;dn":"Jamie+McDell+-+Crash+%5BMusic+Video%5D+720p+%5BSbyky%5D","amp;tr":["udp%3A%2F%2Ftracker.openbittorrent.com%3A80","udp%3A%2F%2Fopen.demonii.com%3A1337","udp%3A%2F%2Ftracker.coppersurfer.tk%3A6969","udp%3A%2F%2Fexodus.desync.com%3A6969"],"infoHash":"eb91fbbe8dce3ca057a452d100217fdbc5dbd2f0","infoHashBuffer":{"type":"Buffer","data":[235,145,251,190,141,206,60,160,87,164,82,209,0,33,127,219,197,219,210,240]},"announce":[],"urlList":[]}}